<?xml version="1.0" encoding="utf-8"?>
<!-- Generator: Adobe Illustrator 18.0.0, SVG Export Plug-In . SVG Version: 6.00 Build 0)  -->
<!DOCTYPE svg PUBLIC "-//W3C//DTD SVG 1.1//EN" "http://www.w3.org/Graphics/SVG/1.1/DTD/svg11.dtd">
<svg version="1.1" id="Camada_1" xmlns="http://www.w3.org/2000/svg" xmlns:xlink="http://www.w3.org/1999/xlink" x="0px" y="0px"
	 viewBox="0 0 152.1 186.8" enable-background="new 0 0 152.1 186.8" xml:space="preserve">
<g>
	<path fill="#00B4D5" d="M1.7,76.1c0-2.5,2.9-3.5,5.8-3.5c2.9,0,5.8,1,5.8,3.5v17.8l13.9-19.7c0.8-1.2,1.9-1.6,3-1.6
		c3,0,6.8,3,6.8,5.9c0,0.6-0.1,1.4-0.7,2.2L24.1,96.1l15.4,23.5c0.4,0.6,0.6,1.3,0.6,1.9c0,2.9-3.6,5.8-7,5.8c-1.6,0-3-0.6-4-2.2
		l-12.7-19.3l-3.1,4v13.4c0,2.4-2.9,3.6-5.8,3.6c-2.9,0-5.8-1.2-5.8-3.6V76.1z"/>
	<path fill="#00B4D5" d="M44.7,76.1c0-2.5,2.9-3.5,5.8-3.5c2.9,0,5.8,1,5.8,3.5v47.2c0,2.4-2.9,3.6-5.8,3.6c-2.9,0-5.8-1.2-5.8-3.6
		V76.1z"/>
	<path fill="#00B4D5" d="M87.1,72.6c11.9,0,21.2,4.8,21.2,17.5v19.2c0,12.8-9.3,17.5-21.2,17.5H71.9c-3.5,0-5.9-1.6-5.9-3.5V76.1
		c0-1.9,2.3-3.5,5.9-3.5H87.1z M79.4,82.7v34.1h7.7c4.8,0,7.8-2.4,7.8-7.4V90.1c0-5-2.9-7.4-7.8-7.4H79.4z"/>
	<path fill="#00B4D5" d="M139.8,112.3c0-9-25-7.4-25-24.8c0-11.1,10.3-15.4,20.2-15.4c4.2,0,15.7,0.7,15.7,6.5c0,2-1.4,6.1-4.9,6.1
		c-2.8,0-4.3-2.8-10.8-2.8c-5.6,0-7.9,2.2-7.9,4.5c0,7.4,25,6,25,24.7c0,10.7-8.3,16.5-19.7,16.5c-10.3,0-19-4.8-19-9.7
		c0-2.5,2.4-6.2,5.4-6.2c3.7,0,6.1,5.5,13.4,5.5C135.8,117.2,139.8,115.9,139.8,112.3z"/>
	<path fill="#00B4D5" d="M35.6,132.5c2.5,0,3.5,2.7,3.5,5.1c0,2.8-1.3,5.3-3.5,5.3H25.3v40.3c0,2.4-2.9,3.6-5.8,3.6
		c-2.9,0-5.8-1.2-5.8-3.6v-40.3H3.5c-2.2,0-3.5-2.5-3.5-5.3c0-2.5,1-5.1,3.5-5.1H35.6z"/>
	<path fill="#00B4D5" d="M44.1,136c0-2.5,2.9-3.5,5.8-3.5c2.9,0,5.8,1,5.8,3.5v47.2c0,2.4-2.9,3.6-5.8,3.6c-2.9,0-5.8-1.2-5.8-3.6
		V136z"/>
	<path fill="#00B4D5" d="M90.9,167.6c-1,1.6-2.5,2.2-3.9,2.2c-1.3,0-2.8-0.4-3.6-2.2l-7.1-12.9v28.6c0,2.4-2.9,3.6-5.8,3.6
		c-2.9,0-5.8-1.2-5.8-3.6v-44.9c0-4.2,2.9-5.8,5.8-5.8c4.2,0,5.9,0.4,9,5.8l7.6,13.4l7.6-13.4c3-5.3,4.8-5.8,9-5.8
		c3,0,5.8,1.6,5.8,5.8v44.9c0,2.4-2.9,3.6-5.8,3.6c-2.9,0-5.8-1.2-5.8-3.6v-27.8L90.9,167.6z"/>
	<path fill="#00B4D5" d="M128.9,155.2h11.1c2.2,0,3.5,2.2,3.5,4.5c0,2-1,4.4-3.5,4.4h-11.1v12.6h19.9c2.2,0,3.5,2.4,3.5,5.1
		c0,2.4-1,5-3.5,5h-26.4c-2.5,0-5.1-1.2-5.1-3.6v-47.2c0-2.4,2.5-3.6,5.1-3.6h26.4c2.5,0,3.5,2.6,3.5,5c0,2.7-1.3,5.1-3.5,5.1h-19.9
		V155.2z"/>
	<g>
		<path fill-rule="evenodd" clip-rule="evenodd" fill="#00B4D5" d="M117.7,54.1c-4.4-2.5-20.2-4.4-38.9-4.4
			c-18.7,0-34.5,1.9-38.9,4.4c-2.3,1.5-0.5,3.6,1.1,3.1c4.3-2.4,19.6-4.1,37.8-4.1c18.2,0,33.5,1.7,37.8,4.1
			C118.1,57.8,120,55.5,117.7,54.1z M41.1,56c-0.4,0-0.7-0.3-0.7-0.6c0-0.3,0.3-0.6,0.7-0.6c0.4,0,0.6,0.3,0.6,0.6
			C41.7,55.7,41.4,56,41.1,56z M43.7,55.1c-0.4,0-0.7-0.3-0.7-0.6c0-0.3,0.3-0.6,0.7-0.6c0.4,0,0.6,0.3,0.6,0.6
			C44.3,54.8,44,55.1,43.7,55.1z M46.3,54.4c-0.4,0-0.7-0.3-0.7-0.6c0-0.3,0.3-0.6,0.7-0.6c0.4,0,0.6,0.3,0.6,0.6
			C46.9,54.1,46.7,54.4,46.3,54.4z M48.9,54c-0.4,0-0.7-0.3-0.7-0.6c0-0.3,0.3-0.6,0.7-0.6c0.4,0,0.6,0.3,0.6,0.6
			C49.5,53.7,49.2,54,48.9,54z M51.6,53.6c-0.4,0-0.6-0.3-0.6-0.6c0-0.3,0.3-0.6,0.6-0.6c0.4,0,0.7,0.3,0.7,0.6
			C52.2,53.3,51.9,53.6,51.6,53.6z M54.3,53.3c-0.4,0-0.7-0.3-0.7-0.6c0-0.3,0.3-0.6,0.7-0.6c0.4,0,0.6,0.3,0.6,0.6
			C54.9,53,54.6,53.3,54.3,53.3z M57,52.9c-0.4,0-0.7-0.3-0.7-0.6s0.3-0.6,0.7-0.6c0.4,0,0.7,0.3,0.7,0.6S57.4,52.9,57,52.9z
			 M59.9,52.8c-0.3,0-0.6-0.3-0.6-0.6c0-0.3,0.3-0.6,0.6-0.6c0.4,0,0.7,0.3,0.7,0.6C60.6,52.5,60.3,52.8,59.9,52.8z M62.8,52.5
			c-0.4,0-0.6-0.3-0.6-0.6c0-0.3,0.3-0.6,0.6-0.6c0.4,0,0.7,0.3,0.7,0.6C63.4,52.2,63.1,52.5,62.8,52.5z M65.6,52.3
			c-0.4,0-0.7-0.3-0.7-0.6c0-0.3,0.3-0.6,0.7-0.6c0.4,0,0.7,0.3,0.7,0.6C66.3,52.1,66,52.3,65.6,52.3z M68.5,52.2
			c-0.4,0-0.7-0.3-0.7-0.6c0-0.3,0.3-0.6,0.7-0.6c0.4,0,0.6,0.3,0.6,0.6C69.1,51.9,68.8,52.2,68.5,52.2z M71.5,52.1
			c-0.4,0-0.6-0.3-0.6-0.6c0-0.3,0.3-0.6,0.6-0.6c0.4,0,0.6,0.3,0.6,0.6C72.1,51.8,71.8,52.1,71.5,52.1z M74.4,52
			c-0.4,0-0.7-0.3-0.7-0.6c0-0.3,0.3-0.6,0.7-0.6c0.4,0,0.6,0.3,0.6,0.6C75.1,51.7,74.8,52,74.4,52z M77.3,52
			c-0.4,0-0.6-0.3-0.6-0.6c0-0.3,0.3-0.6,0.6-0.6c0.4,0,0.7,0.3,0.7,0.6C77.9,51.7,77.6,52,77.3,52z M80.2,52
			c-0.4,0-0.7-0.3-0.7-0.6c0-0.3,0.3-0.6,0.7-0.6c0.4,0,0.7,0.3,0.7,0.6C80.8,51.7,80.5,52,80.2,52z M83,52c-0.4,0-0.7-0.3-0.7-0.6
			c0-0.3,0.3-0.6,0.7-0.6c0.4,0,0.6,0.3,0.6,0.6C83.7,51.7,83.4,52,83,52z M86,52c-0.4,0-0.7-0.3-0.7-0.6c0-0.3,0.3-0.6,0.7-0.6
			c0.4,0,0.6,0.3,0.6,0.6C86.6,51.8,86.3,52,86,52z M88.9,52.2c-0.4,0-0.7-0.3-0.7-0.6c0-0.3,0.3-0.6,0.7-0.6c0.4,0,0.6,0.3,0.6,0.6
			C89.6,51.9,89.3,52.2,88.9,52.2z M91.8,52.3c-0.3,0-0.6-0.3-0.6-0.6c0-0.3,0.3-0.6,0.6-0.6c0.4,0,0.7,0.3,0.7,0.6
			C92.4,52.1,92.1,52.3,91.8,52.3z M94.6,52.5c-0.4,0-0.6-0.3-0.6-0.6c0-0.3,0.3-0.6,0.6-0.6c0.4,0,0.7,0.3,0.7,0.6
			C95.3,52.2,95,52.5,94.6,52.5z M97.4,52.8c-0.4,0-0.7-0.3-0.7-0.6c0-0.3,0.3-0.6,0.7-0.6c0.4,0,0.7,0.3,0.7,0.6
			C98.1,52.5,97.8,52.8,97.4,52.8z M100.3,52.9c-0.4,0-0.7-0.3-0.7-0.6s0.3-0.6,0.7-0.6c0.4,0,0.6,0.3,0.6,0.6
			S100.7,52.9,100.3,52.9z M103.1,53.3c-0.4,0-0.7-0.3-0.7-0.6c0-0.3,0.3-0.6,0.7-0.6c0.4,0,0.6,0.3,0.6,0.6
			C103.8,53,103.5,53.3,103.1,53.3z M105.8,53.6c-0.4,0-0.7-0.3-0.7-0.6c0-0.3,0.3-0.6,0.7-0.6c0.4,0,0.7,0.3,0.7,0.6
			C106.5,53.3,106.2,53.6,105.8,53.6z M108.5,54c-0.4,0-0.6-0.3-0.6-0.6c0-0.3,0.3-0.6,0.6-0.6c0.4,0,0.6,0.3,0.6,0.6
			C109.1,53.7,108.9,54,108.5,54z M111.1,54.4c-0.4,0-0.7-0.3-0.7-0.6c0-0.3,0.3-0.6,0.7-0.6c0.4,0,0.7,0.3,0.7,0.6
			C111.7,54.1,111.4,54.4,111.1,54.4z M113.7,55.1c-0.4,0-0.7-0.3-0.7-0.6c0-0.3,0.3-0.6,0.7-0.6c0.4,0,0.6,0.3,0.6,0.6
			C114.4,54.8,114.1,55.1,113.7,55.1z M116.3,56c-0.4,0-0.7-0.3-0.7-0.6c0-0.3,0.3-0.6,0.7-0.6c0.4,0,0.7,0.3,0.7,0.6
			C117,55.7,116.7,56,116.3,56z"/>
		<path fill-rule="evenodd" clip-rule="evenodd" fill="#00B4D5" d="M29.3,27.1c-2.8-4.2-7.2-1.5-4.4,2.7c1.2,1.8,5,3.6,5.5,3.6
			C30.5,32.9,30.5,28.9,29.3,27.1z M26.8,28.3c-0.5,0.3-1.2,0.1-1.5-0.3c-0.3-0.5-0.1-1.1,0.4-1.4c0.5-0.3,1.1-0.1,1.4,0.4
			C27.4,27.4,27.3,28.1,26.8,28.3z"/>
		<path fill-rule="evenodd" clip-rule="evenodd" fill="#00B4D5" d="M49.3,16.1c-2.8-6.6-9.7-3.9-6.9,2.6c1.2,2.9,6.1,6.3,6.7,6.4
			C49.5,24.5,50.6,18.9,49.3,16.1z M45.5,16.8c-0.7,0.3-1.5,0-1.8-0.6c-0.3-0.7,0-1.4,0.7-1.7c0.7-0.3,1.5,0,1.8,0.6
			C46.5,15.7,46.2,16.5,45.5,16.8z"/>
		<path fill-rule="evenodd" clip-rule="evenodd" fill="#00B4D5" d="M74,7.7c0,3.9,4,9.9,4.7,10.4c0.7-0.4,4.7-6.6,4.7-10.4
			C83.3-1.2,74-1.2,74,7.7z M78.7,7C77.7,7,77,6.3,77,5.4c0-0.9,0.7-1.6,1.7-1.6c0.9,0,1.7,0.7,1.7,1.6C80.3,6.3,79.6,7,78.7,7z"/>
		<path fill-rule="evenodd" clip-rule="evenodd" fill="#00B4D5" d="M107.7,16.1c-1.2,2.9-0.2,8.4,0.2,9c0.7-0.1,5.5-3.5,6.7-6.4
			C117.5,12.1,110.5,9.5,107.7,16.1z M113.4,16.1c-0.3,0.7-1.1,0.9-1.8,0.6c-0.7-0.3-1-1.1-0.7-1.7c0.3-0.7,1.2-0.9,1.8-0.6
			C113.5,14.7,113.8,15.5,113.4,16.1z"/>
		<path fill-rule="evenodd" clip-rule="evenodd" fill="#00B4D5" d="M128.1,27.1c-1.2,1.8-1.3,5.8-1.1,6.2c0.5,0,4.3-1.7,5.5-3.6
			C135.3,25.6,130.9,22.9,128.1,27.1z M131.9,28c-0.3,0.5-1,0.6-1.5,0.3c-0.5-0.3-0.7-0.9-0.4-1.4c0.3-0.5,1-0.6,1.5-0.4
			C132,26.9,132.1,27.5,131.9,28z"/>
		<path fill-rule="evenodd" clip-rule="evenodd" fill="#00B4D5" d="M107.5,27.6c-6.7,4.7-24.3,2-28.9-6.8
			c-4.6,8.8-22.2,11.5-28.9,6.8c-2.5,7.9-14.2,10.3-18.7,8.1l8.2,14.7c4.4-2.5,20.4-4.4,39.4-4.4c19,0,34.9,1.9,39.4,4.4l8.2-14.7
			C121.8,37.9,109.4,35.2,107.5,27.6z M43,43.6c-1.1,0-2-0.9-2-1.9c0-1.1,0.9-1.9,2-1.9c1.1,0,2,0.9,2,1.9
			C45.1,42.7,44.2,43.6,43,43.6z M56.6,37.3l0.9,2.1l-1.7-0.6l-0.4-1l-0.4-1l0.8-1.6L56.6,37.3z M55.3,39l-0.4,0.7l-0.4,0.7
			l-0.8-0.3l-0.8-0.3l-0.4-1l-0.4-1l0.4-0.7l0.4-0.7l0.8,0.3l0.8,0.3l0.4,1L55.3,39z M53.5,34.1l1.7,0.6l-0.8,1.6L53.6,36l-0.8-0.3
			l-0.9-2.2L53.5,34.1z M50.6,35.2l0.8-1.5l0.9,2.2l-0.4,0.7l-0.4,0.7l-1.7-0.6L50.6,35.2z M50.7,39.6l-0.9-2.1l1.7,0.6l0.4,1l0.4,1
			l-0.8,1.6L50.7,39.6z M53.8,42.8l-1.7-0.6l0.8-1.6l0.8,0.3l0.8,0.3l0.9,2.2L53.8,42.8z M56.7,41.7l-0.8,1.5L55,41l0.4-0.7l0.4-0.7
			l1.7,0.6L56.7,41.7z M78.9,29.6l1.6,1.4l1.6,1.4l-1.7,1.5l-0.8-0.7l-0.8-0.7V29.6z M76.7,31l1.6-1.4v2.9l-0.8,0.7l-0.8,0.7
			L75,32.4L76.7,31z M65.8,38.8c-1.1,0-2-0.9-2-1.9c0-1.1,0.9-1.9,2-1.9c1.1,0,2.1,0.9,2.1,1.9C67.8,38,66.9,38.8,65.8,38.8z
			 M74.7,36v-2.8l1.7,1.4V36v1.4l-1.7,1.4V36z M78.3,42.4L76.7,41L75,39.6l1.7-1.5l0.8,0.7l0.8,0.7V42.4z M77.8,38L77,37.4V36v-1.4
			l0.8-0.7l0.8-0.7l0.8,0.7l0.8,0.7V36v1.4L79.4,38l-0.8,0.7L77.8,38z M80.6,41l-1.6,1.4v-2.9l0.8-0.7l0.8-0.7l1.7,1.4L80.6,41z
			 M82.5,36v2.8l-1.7-1.5V36v-1.4l1.7-1.4V36z M91.8,38.8c-1.1,0-2-0.9-2-1.9c0-1.1,0.9-1.9,2-1.9c1.1,0,2,0.9,2,1.9
			C93.8,38,92.9,38.8,91.8,38.8z M103.4,34.1l1.7-0.6l-0.9,2.2l-0.8,0.3l-0.8,0.3l-0.8-1.6L103.4,34.1z M104.5,37.1l0.4,0.7l-0.4,1
			l-0.4,1l-0.8,0.3l-0.8,0.3l-0.4-0.7l-0.4-0.7l0.4-1l0.4-1l0.8-0.3l0.8-0.3L104.5,37.1z M100.3,37.3l0.9-2.1l0.8,1.6l-0.4,1l-0.4,1
			l-1.7,0.6L100.3,37.3z M100.2,41.7l-0.8-1.5l1.7-0.6l0.4,0.7l0.4,0.7l-0.9,2.2L100.2,41.7z M103.2,42.8l-1.7,0.6l0.9-2.2l0.8-0.3
			l0.8-0.3l0.8,1.6L103.2,42.8z M106.2,39.6l-0.9,2.1l-0.8-1.6l0.4-1l0.4-1l1.7-0.6L106.2,39.6z M105.4,37.3l-0.4-0.7l-0.4-0.7
			l0.9-2.2l0.8,1.5l0.8,1.5L105.4,37.3z M114,43.5c-1.1,0-2.1-0.9-2.1-1.9c0-1.1,0.9-1.9,2.1-1.9c1.1,0,2,0.9,2,1.9
			C116.1,42.7,115.1,43.5,114,43.5z"/>
		<path fill-rule="evenodd" clip-rule="evenodd" fill="#00B4D5" d="M41.4,59.8c4.3-2.5,19.8-4.4,38.1-4.4c18.3,0,33.8,1.9,38.1,4.4
			c2.3,1.4,0.5,3.8-1.1,3.1c-4.2-2.4-19.2-4.1-37.1-4.1c-17.8,0-32.9,1.7-37.1,4.1C40.8,63.4,39.1,61.3,41.4,59.8L41.4,59.8z"/>
		<path fill-rule="evenodd" clip-rule="evenodd" fill="#00B4D5" d="M111,61.7c-6.9,1.4-18.5,2.4-31.6,2.4c-13.1,0-24.6-0.9-31.5-2.4
			c-0.5,0-4.7,1-5.5,1.9c5.4,2.3,20,3.9,37.1,3.9c17,0,31.5-1.6,37-3.9C115.3,62.4,111.6,61.8,111,61.7z"/>
	</g>
</g>
</svg>
